<svg width="18" height="21" viewBox="0 0 18 21" fill="none" xmlns="http://www.w3.org/2000/svg">
<path fill-rule="evenodd" clip-rule="evenodd" d="M16.6756 20.4986H1.12965C0.583843 20.4986 0.140137 20.0496 0.140137 19.4966V1.50299C0.140137 0.949909 0.583869 0.500977 1.12965 0.500977H14.332C14.3872 0.500977 14.4404 0.52285 14.4789 0.562431L17.6038 3.68731C17.6434 3.72689 17.6652 3.78001 17.6652 3.83417V19.4967C17.6652 20.0498 17.2215 20.4997 16.6757 20.4997L16.6756 20.4986ZM1.12965 0.916311C0.813002 0.916311 0.556778 1.17984 0.556778 1.50273V19.4963C0.556778 19.8192 0.813013 20.0827 1.12965 20.0827H16.6756C16.9923 20.0827 17.2485 19.8192 17.2485 19.4963V3.91911L14.2466 0.917164H1.12976L1.12965 0.916311Z" fill="black"/>
<path fill-rule="evenodd" clip-rule="evenodd" d="M1.51936 5.57766C1.40478 5.57766 1.31104 5.48391 1.31104 5.36934V1.87995C1.31104 1.76537 1.40478 1.67163 1.51936 1.67163H4.76076C4.87533 1.67163 4.96908 1.76537 4.96908 1.87995C4.96908 1.99453 4.87533 2.08827 4.76076 2.08827H1.72761V5.3694C1.72761 5.48398 1.63393 5.57766 1.51936 5.57766Z" fill="black"/>
<path fill-rule="evenodd" clip-rule="evenodd" d="M17.4572 4.04121H15.126C14.573 4.04121 14.124 3.59227 14.124 3.03919V0.708076C14.124 0.593499 14.2178 0.499756 14.3323 0.499756C14.4469 0.499756 14.5407 0.593499 14.5407 0.708076V3.03815C14.5407 3.36103 14.8042 3.62456 15.1271 3.62456H17.4572C17.5717 3.62456 17.6655 3.71831 17.6655 3.83289C17.6655 3.94746 17.5717 4.04121 17.4572 4.04121Z" fill="black"/>
<path fill-rule="evenodd" clip-rule="evenodd" d="M14.6447 16.8135H3.16111C2.70906 16.8135 2.34033 16.4396 2.34033 15.9802V10.564C2.34033 10.1119 2.70906 9.74426 3.16111 9.74426H14.6447C15.0967 9.74426 15.4654 10.113 15.4654 10.564V15.9802C15.4654 16.4396 15.0967 16.8135 14.6447 16.8135ZM3.16111 10.1608C2.9382 10.1608 2.75697 10.3421 2.75697 10.5639V15.9801C2.75697 16.2051 2.94238 16.3968 3.16111 16.3968H14.6447C14.8634 16.3968 15.0488 16.2051 15.0488 15.9801V10.5639C15.0488 10.341 14.8676 10.1608 14.6447 10.1608H3.16111Z" fill="black"/>
<path fill-rule="evenodd" clip-rule="evenodd" d="M15.2561 12.1919H2.54865C2.43408 12.1919 2.34033 12.0982 2.34033 11.9836C2.34033 11.869 2.43408 11.7753 2.54865 11.7753H15.2561C15.3707 11.7753 15.4645 11.869 15.4645 11.9836C15.4645 12.0982 15.3707 12.1919 15.2561 12.1919Z" fill="black"/>
<path fill-rule="evenodd" clip-rule="evenodd" d="M15.2561 14.7821H2.54865C2.43408 14.7821 2.34033 14.6884 2.34033 14.5738C2.34033 14.4592 2.43408 14.3655 2.54865 14.3655H15.2561C15.3707 14.3655 15.4645 14.4592 15.4645 14.5738C15.4645 14.6884 15.3707 14.7821 15.2561 14.7821Z" fill="black"/>
<path fill-rule="evenodd" clip-rule="evenodd" d="M12.4051 16.8134C12.2905 16.8134 12.1968 16.7197 12.1968 16.6051V9.95246C12.1968 9.83788 12.2905 9.74414 12.4051 9.74414C12.5197 9.74414 12.6134 9.83788 12.6134 9.95246V16.6051C12.6134 16.7197 12.5197 16.8134 12.4051 16.8134Z" fill="black"/>
<path fill-rule="evenodd" clip-rule="evenodd" d="M8.90217 16.8134C8.78759 16.8134 8.69385 16.7197 8.69385 16.6051V9.95246C8.69385 9.83788 8.78759 9.74414 8.90217 9.74414C9.01675 9.74414 9.11049 9.83788 9.11049 9.95246V16.6051C9.11049 16.7197 9.01675 16.8134 8.90217 16.8134Z" fill="black"/>
<path fill-rule="evenodd" clip-rule="evenodd" d="M5.40022 16.8134C5.28564 16.8134 5.19189 16.7197 5.19189 16.6051V9.95246C5.19189 9.83788 5.28564 9.74414 5.40022 9.74414C5.51479 9.74414 5.60854 9.83788 5.60854 9.95246V16.6051C5.60854 16.7197 5.51479 16.8134 5.40022 16.8134Z" fill="black"/>
<path fill-rule="evenodd" clip-rule="evenodd" d="M8.90221 8.61189C7.1221 8.61189 5.67334 7.16302 5.67334 5.38302C5.67334 4.51537 6.00977 3.70083 6.62016 3.08837C7.22951 2.47694 8.0409 2.1405 8.90232 2.1405C9.76373 2.1405 10.5751 2.47798 11.1845 3.08837C11.7949 3.69979 12.1313 4.51537 12.1313 5.38302C12.1313 7.16313 10.6822 8.61189 8.90221 8.61189ZM8.90221 2.55706C7.35126 2.55706 6.08985 3.82365 6.08985 5.38302C6.08985 6.93397 7.35124 8.19539 8.90221 8.19539C10.4532 8.19539 11.7146 6.934 11.7146 5.38302C11.7146 3.82477 10.4532 2.55706 8.90221 2.55706Z" fill="black"/>
<path fill-rule="evenodd" clip-rule="evenodd" d="M8.90248 7.34841C8.61396 7.34841 8.34104 7.23279 8.1369 7.02448C7.93378 6.81616 7.82233 6.5443 7.82233 6.25474C7.82233 6.14016 7.91607 6.04642 8.03065 6.04642C8.14523 6.04642 8.23897 6.14016 8.23897 6.25474C8.23897 6.62867 8.53687 6.93179 8.90248 6.93179C9.26808 6.93179 9.56702 6.62869 9.56702 6.25474C9.56702 5.88914 9.26912 5.5902 8.90248 5.5902C8.61396 5.5902 8.34104 5.47666 8.13794 5.27147C7.93378 5.06523 7.82129 4.79128 7.82129 4.49653C7.82129 3.90073 8.30563 3.41638 8.90144 3.41638C9.49724 3.41638 9.98158 3.90073 9.98158 4.49653C9.98158 4.61111 9.88784 4.70485 9.77326 4.70485C9.65869 4.70485 9.56494 4.61111 9.56494 4.49653C9.56494 4.13092 9.26704 3.83198 8.9004 3.83198C8.53479 3.83198 8.23689 4.12988 8.23689 4.49653C8.23689 4.87672 8.52855 5.17358 8.9004 5.17358C9.4962 5.17358 9.98054 5.65792 9.98054 6.25373C9.98054 6.54328 9.86909 6.81516 9.66598 7.02347C9.46182 7.23179 9.18995 7.34739 8.9004 7.34739L8.90248 7.34841Z" fill="black"/>
<path fill-rule="evenodd" clip-rule="evenodd" d="M8.90217 3.83289C8.78759 3.83289 8.69385 3.73915 8.69385 3.62457V3.32563C8.69385 3.21105 8.78759 3.11731 8.90217 3.11731C9.01675 3.11731 9.11049 3.21105 9.11049 3.32563V3.62457C9.11049 3.73915 9.01675 3.83289 8.90217 3.83289Z" fill="black"/>
<path fill-rule="evenodd" clip-rule="evenodd" d="M8.90217 7.64735C8.78759 7.64735 8.69385 7.5536 8.69385 7.43903V7.14008C8.69385 7.02551 8.78759 6.93176 8.90217 6.93176C9.01675 6.93176 9.11049 7.02551 9.11049 7.14008V7.43903C9.11049 7.5536 9.01675 7.64735 8.90217 7.64735Z" fill="black"/>
<path fill-rule="evenodd" clip-rule="evenodd" d="M9.4629 18.8582H2.54865C2.43408 18.8582 2.34033 18.7644 2.34033 18.6498C2.34033 18.5353 2.43408 18.4415 2.54865 18.4415H9.4629C9.57747 18.4415 9.67122 18.5353 9.67122 18.6498C9.67122 18.7644 9.57747 18.8582 9.4629 18.8582Z" fill="black"/>
<path fill-rule="evenodd" clip-rule="evenodd" d="M15.2562 18.8582H12.8865C12.772 18.8582 12.6782 18.7644 12.6782 18.6498C12.6782 18.5353 12.772 18.4415 12.8865 18.4415H15.2562C15.3708 18.4415 15.4645 18.5353 15.4645 18.6498C15.4645 18.7644 15.3708 18.8582 15.2562 18.8582Z" fill="black"/>
</svg>
